<svg width="1343" height="200" viewBox="0 0 1343 200" fill="none" xmlns="http://www.w3.org/2000/svg">
<path d="M137.893 0C103.648 0 75.7861 27.8602 75.7861 62.1056V75.7322C75.7861 77.4767 77.1994 78.89 78.944 78.89C80.6885 78.89 82.1018 77.4767 82.1018 75.7322V62.1056C82.1018 31.343 107.13 6.31603 137.893 6.31603C168.655 6.31603 193.684 31.343 193.684 62.1056C193.684 92.8682 168.657 117.895 137.893 117.895H129.191C127.446 117.895 126.033 119.308 126.033 121.053C126.033 122.798 127.447 124.211 129.191 124.211H137.893C172.139 124.211 200 96.3506 200 62.1056C200 27.8606 172.139 0 137.893 0Z" fill="#C1D8F0"/>
<path d="M70.5231 101.053C68.7785 101.053 67.3652 102.466 67.3652 104.211V104.632C67.3652 106.376 68.7793 107.789 70.5231 107.789C72.2668 107.789 73.6809 106.376 73.6809 104.632V104.211C73.6809 102.466 72.2676 101.053 70.5231 101.053Z" fill="#2A0084"/>
<path d="M139.903 64.7843C139.903 57.1335 133.678 50.9088 126.027 50.9088C123.24 50.9088 120.643 51.7346 118.467 53.1538V32.6315C118.467 30.8869 117.053 29.4736 115.309 29.4736H103.06C101.315 29.4736 99.9019 30.8873 99.9019 32.6315C99.9019 34.3756 101.315 35.7893 103.06 35.7893H112.151V64.7843C112.151 72.4354 118.376 78.6601 126.027 78.6601C133.678 78.6601 139.903 72.4358 139.903 64.7843ZM126.027 72.3444C121.858 72.3444 118.466 68.953 118.466 64.7843C118.466 60.6163 121.857 57.2245 126.027 57.2245C130.196 57.2245 133.587 60.6159 133.587 64.7843C133.587 68.9534 130.195 72.3444 126.027 72.3444Z" fill="#BBECF7"/>
<path d="M151.291 42.1055H139.042C137.298 42.1055 135.884 43.5188 135.884 45.2633C135.884 47.0078 137.298 48.4211 139.042 48.4211H148.133V77.4161C148.133 85.0673 154.358 91.2919 162.009 91.2919C169.661 91.2919 175.885 85.0673 175.885 77.4161C175.885 69.7653 169.66 63.5407 162.009 63.5407C159.222 63.5407 156.625 64.3661 154.449 65.7852V45.2629C154.449 43.5188 153.035 42.1055 151.291 42.1055ZM162.009 69.8567C166.178 69.8567 169.569 73.2481 169.569 77.4165C169.569 81.5848 166.178 84.9766 162.009 84.9766C157.84 84.9766 154.449 81.5852 154.449 77.4165C154.449 73.2481 157.84 69.8567 162.009 69.8567Z" fill="#FF8C80"/>
<path d="M112.454 121.645L101.118 115.978L114.089 103.007C115.184 101.911 115.787 100.456 115.787 98.9063C115.787 97.1985 115.04 95.586 113.737 94.4824C112.434 93.3785 110.722 92.9067 109.035 93.1867L88.2931 96.6442C84.6994 89.2887 77.1407 84.2109 68.4177 84.2109C56.2286 84.2109 46.3118 94.1278 46.3118 106.316V119.949L12.6566 105.012C11.1926 104.363 9.4746 104.911 8.6582 106.288L5.43866 111.722C0.780446 119.587 -0.969167 128.877 0.513648 137.883C1.07459 141.29 2.08435 144.611 3.51522 147.752C4.23866 149.339 6.11171 150.039 7.69843 149.316C9.28593 148.593 9.98593 146.72 9.26288 145.133C8.06288 142.499 7.21561 139.715 6.7453 136.857C5.50311 129.313 6.96874 121.53 10.8719 114.941L12.6602 111.923L46.3106 126.859V135.335L15.4145 138.97C13.8242 139.157 12.6254 140.504 12.6254 142.106V148.421C12.6254 165.084 23.1442 179.336 37.8895 184.887V196.842C37.8895 198.587 39.3028 200 41.0473 200H49.4688C51.213 200 52.6266 198.587 52.6266 196.842C52.6266 195.098 51.213 193.685 49.4688 193.685H44.2067V186.67C46.5926 187.128 49.0571 187.369 51.5751 187.369C54.0931 187.369 56.5575 187.128 58.9434 186.67V196.842C58.9434 198.587 60.3567 200 62.1013 200H70.5228C72.2669 200 73.6806 198.587 73.6806 196.842C73.6806 195.098 72.2673 193.685 70.5228 193.685H65.2595V184.888C80.0052 179.337 90.5236 165.084 90.5236 148.422V136.361L110.747 132.99C113.667 132.504 115.788 130.001 115.788 127.04C115.788 124.741 114.51 122.674 112.454 121.645ZM84.2076 133.626C84.2068 133.663 84.2068 133.699 84.2076 133.736V148.422C84.2076 166.415 69.5685 181.053 51.5751 181.053C33.5817 181.053 18.9426 166.415 18.9426 148.422V144.914L49.8091 141.283C49.8317 141.28 49.8536 141.277 49.8762 141.274L66.4341 139.327C62.9368 153.763 49.9528 164.211 34.7321 164.211L34.5895 164.211C34.5813 164.211 34.5735 164.211 34.5657 164.211C32.8325 164.211 31.4207 165.609 31.4082 167.345C31.3957 169.09 32.7989 170.513 34.543 170.527L34.7325 170.527C53.688 170.527 69.7376 156.947 73.0509 138.548L78.0138 137.964C79.7462 137.761 80.9849 136.191 80.781 134.459C80.5775 132.727 79.0013 131.485 77.2763 131.692L69.9782 132.551C69.9318 132.555 69.8853 132.561 69.8396 132.567L52.6278 134.592V124.879C52.629 124.832 52.629 124.784 52.6278 124.737V106.317C52.6278 97.6102 59.711 90.5274 68.4177 90.5274C77.1243 90.5274 84.2076 97.6102 84.2076 106.317V133.626ZM90.5232 129.957V106.316C90.5232 105.094 90.4236 103.894 90.2318 102.725L108.481 99.6828L93.5533 114.609C92.8357 115.327 92.5064 116.346 92.6689 117.348C92.8318 118.35 93.4658 119.213 94.3736 119.667L108.846 126.903L90.5232 129.957Z" fill="#D4CEFE"/>
<path d="M283.92 130H266L300.56 87.376V86.352L266 44.24H283.92L311.824 78.032H312.848L340.112 44.24H358.032L323.472 86.48V87.504L358.032 130H340.112L312.336 95.568H311.312L283.92 130ZM393.84 131.28C372.976 131.28 359.28 119.504 359.28 98.256C359.28 78.416 372.848 65.104 393.584 65.104C413.296 65.104 426.736 75.984 426.736 95.312C426.736 97.616 426.608 99.408 426.224 101.328H372.208C372.72 113.616 378.736 120.144 393.456 120.144C406.768 120.144 412.272 115.792 412.272 108.24V107.216H426.096V108.368C426.096 121.936 412.784 131.28 393.84 131.28ZM393.328 75.984C379.248 75.984 373.104 82.256 372.336 93.648H413.68V93.392C413.68 81.616 406.896 75.984 393.328 75.984ZM448.354 130H434.53V66.384H447.202V86.096H448.098C450.018 75.344 458.466 65.104 474.594 65.104C492.258 65.104 500.962 77.008 500.962 91.728V130H487.138V95.44C487.138 83.536 481.762 77.52 468.578 77.52C454.626 77.52 448.354 84.688 448.354 98.512V130ZM543.232 131.28C522.112 131.28 507.904 117.84 507.904 98.256C507.904 78.416 522.112 65.104 543.232 65.104C564.48 65.104 578.688 78.416 578.688 98.256C578.688 117.84 564.48 131.28 543.232 131.28ZM543.232 118.992C558.72 118.992 565.12 111.696 565.12 98.256C565.12 84.688 558.72 77.264 543.232 77.264C527.872 77.264 521.472 84.688 521.472 98.256C521.472 111.696 527.872 118.992 543.232 118.992ZM647.203 131.28C620.579 131.28 602.915 113.872 602.915 87.12C602.915 60.368 620.579 42.96 647.203 42.96C671.395 42.96 688.291 55.76 688.291 76.24V78.032H673.059V76.24C673.059 63.184 664.739 56.144 647.331 56.144C627.235 56.144 617.507 65.744 617.507 87.12C617.507 108.496 627.235 117.968 647.331 117.968C664.739 117.968 673.059 111.056 673.059 97.872V96.208H688.291V97.872C688.291 118.48 671.523 131.28 647.203 131.28ZM714.603 131.28C701.419 131.28 693.099 125.136 693.099 114.64C693.099 104.784 701.035 99.664 713.579 98.256L742.507 95.184V91.472C742.507 80.976 737.899 77.264 725.739 77.264C713.963 77.264 708.203 81.104 708.203 90.448V90.96H694.507V90.448C694.507 75.984 706.539 65.104 726.763 65.104C746.987 65.104 756.075 76.112 756.075 91.344V130H743.403V114.128H742.507C739.179 124.88 729.067 131.28 714.603 131.28ZM706.923 113.744C706.923 118.864 710.379 121.296 718.315 121.296C732.779 121.296 742.507 115.92 742.507 103.376L717.547 106.192C710.379 107.088 706.923 108.752 706.923 113.744ZM779.679 130H765.855V66.384H778.527V86.096H779.423C781.343 75.344 789.791 65.104 805.919 65.104C823.583 65.104 832.287 77.008 832.287 91.728V130H818.463V95.44C818.463 83.536 813.087 77.52 799.903 77.52C785.951 77.52 779.679 84.688 779.679 98.512V130ZM883.773 130H869.181C855.485 130 847.037 123.984 847.037 108.496V77.904H836.285V66.384H847.037V52.432H860.733V66.384H883.773V77.904H860.733V107.728C860.733 115.536 864.317 117.584 872.253 117.584H883.773V130ZM922.372 131.28C901.252 131.28 887.044 117.84 887.044 98.256C887.044 78.416 901.252 65.104 922.372 65.104C943.62 65.104 957.828 78.416 957.828 98.256C957.828 117.84 943.62 131.28 922.372 131.28ZM922.372 118.992C937.86 118.992 944.26 111.696 944.26 98.256C944.26 84.688 937.86 77.264 922.372 77.264C907.012 77.264 900.612 84.688 900.612 98.256C900.612 111.696 907.012 118.992 922.372 118.992ZM1024.42 130H985.383V44.24H1024.42C1051.05 44.24 1067.82 60.624 1067.82 87.12C1067.82 113.616 1051.05 130 1024.42 130ZM1024.42 56.656H999.079V117.584H1024.42C1044.26 117.584 1053.22 109.136 1053.22 87.12C1053.22 65.104 1044.26 56.656 1024.42 56.656ZM1107.56 131.28C1086.69 131.28 1073 119.504 1073 98.256C1073 78.416 1086.56 65.104 1107.3 65.104C1127.01 65.104 1140.45 75.984 1140.45 95.312C1140.45 97.616 1140.32 99.408 1139.94 101.328H1085.92C1086.44 113.616 1092.45 120.144 1107.17 120.144C1120.48 120.144 1125.99 115.792 1125.99 108.24V107.216H1139.81V108.368C1139.81 121.936 1126.5 131.28 1107.56 131.28ZM1107.04 75.984C1092.96 75.984 1086.82 82.256 1086.05 93.648H1127.4V93.392C1127.4 81.616 1120.61 75.984 1107.04 75.984ZM1162.07 130H1148.24V66.384H1160.92V85.584H1161.68C1163.35 74.96 1170.26 65.104 1186.13 65.104C1200.6 65.104 1208.4 73.936 1210.2 86.096H1210.96C1212.63 75.216 1219.8 65.104 1235.92 65.104C1252.44 65.104 1260.76 76.368 1260.76 91.728V130H1247.06V95.44C1247.06 82.896 1242.07 77.52 1229.78 77.52C1216.21 77.52 1211.35 84.432 1211.35 98.512V130H1197.65V95.44C1197.65 82.896 1192.79 77.52 1180.5 77.52C1166.8 77.52 1162.07 84.432 1162.07 98.512V130ZM1303.07 131.28C1281.95 131.28 1267.74 117.84 1267.74 98.256C1267.74 78.416 1281.95 65.104 1303.07 65.104C1324.32 65.104 1338.53 78.416 1338.53 98.256C1338.53 117.84 1324.32 131.28 1303.07 131.28ZM1303.07 118.992C1318.56 118.992 1324.96 111.696 1324.96 98.256C1324.96 84.688 1318.56 77.264 1303.07 77.264C1287.71 77.264 1281.31 84.688 1281.31 98.256C1281.31 111.696 1287.71 118.992 1303.07 118.992Z" fill="#4663AC"/>
<path d="M266.4 153H270.44L276.12 177.24H276.28L282.44 153H287.32L293.44 177.24H293.6L299.28 153H303.32L296 181H291.08L284.96 157.32H284.8L278.64 181H273.72L266.4 153ZM306.374 160.68H310.094V181H306.374V160.68ZM308.254 157.12C307.534 157.12 306.948 156.907 306.494 156.48C306.068 156.027 305.854 155.427 305.854 154.68C305.854 153.96 306.068 153.387 306.494 152.96C306.948 152.507 307.534 152.28 308.254 152.28C308.974 152.28 309.548 152.507 309.974 152.96C310.428 153.387 310.654 153.96 310.654 154.68C310.654 155.4 310.428 155.987 309.974 156.44C309.548 156.893 308.974 157.12 308.254 157.12ZM321.118 181C319.278 181 317.864 180.507 316.878 179.52C315.891 178.533 315.398 177.12 315.398 175.28V152.2H319.118V175.52C319.118 176.347 319.331 176.973 319.758 177.4C320.184 177.827 320.798 178.04 321.598 178.04H323.518V181H321.118ZM334.369 181.2C332.582 181.2 331.009 180.787 329.649 179.96C328.289 179.107 327.235 177.893 326.489 176.32C325.769 174.747 325.409 172.933 325.409 170.88C325.409 168.8 325.769 166.973 326.489 165.4C327.235 163.827 328.289 162.613 329.649 161.76C331.009 160.907 332.582 160.48 334.369 160.48C335.782 160.48 337.102 160.813 338.329 161.48C339.555 162.147 340.515 163.067 341.209 164.24H341.369V152.2H345.089V181H341.529V177.48H341.369C340.702 178.627 339.729 179.533 338.449 180.2C337.195 180.867 335.835 181.2 334.369 181.2ZM335.369 178.16C336.622 178.16 337.715 177.867 338.649 177.28C339.582 176.693 340.289 175.853 340.769 174.76C341.275 173.667 341.529 172.373 341.529 170.88C341.529 169.387 341.275 168.08 340.769 166.96C340.262 165.84 339.542 164.987 338.609 164.4C337.675 163.813 336.595 163.52 335.369 163.52C334.115 163.52 333.022 163.813 332.089 164.4C331.182 164.987 330.475 165.84 329.969 166.96C329.462 168.08 329.209 169.387 329.209 170.88C329.209 172.373 329.449 173.667 329.929 174.76C330.435 175.853 331.155 176.693 332.089 177.28C333.022 177.867 334.115 178.16 335.369 178.16ZM356.079 181C354.239 181 352.825 180.507 351.839 179.52C350.852 178.533 350.359 177.12 350.359 175.28V152.2H354.079V175.52C354.079 176.347 354.292 176.973 354.719 177.4C355.145 177.827 355.759 178.04 356.559 178.04H358.479V181H356.079ZM361.96 160.68H365.68V181H361.96V160.68ZM363.84 157.12C363.12 157.12 362.534 156.907 362.08 156.48C361.654 156.027 361.44 155.427 361.44 154.68C361.44 153.96 361.654 153.387 362.08 152.96C362.534 152.507 363.12 152.28 363.84 152.28C364.56 152.28 365.134 152.507 365.56 152.96C366.014 153.387 366.24 153.96 366.24 154.68C366.24 155.4 366.014 155.987 365.56 156.44C365.134 156.893 364.56 157.12 363.84 157.12ZM373.424 157.92C373.424 156.053 373.904 154.64 374.864 153.68C375.85 152.693 377.277 152.2 379.144 152.2H382.664V155.16H379.624C378.824 155.16 378.21 155.373 377.784 155.8C377.357 156.227 377.144 156.853 377.144 157.68V181H373.424V157.92ZM369.384 160.68H382.664V163.64H369.384V160.68ZM394.355 181.2C392.328 181.2 390.555 180.787 389.035 179.96C387.515 179.107 386.342 177.907 385.515 176.36C384.715 174.787 384.315 172.96 384.315 170.88C384.315 168.773 384.715 166.933 385.515 165.36C386.342 163.787 387.515 162.587 389.035 161.76C390.555 160.907 392.328 160.48 394.355 160.48C397.208 160.48 399.448 161.4 401.075 163.24C402.702 165.08 403.515 167.613 403.515 170.84V172.08H386.555V169.36H400.435L399.915 169.96C399.915 167.907 399.422 166.32 398.435 165.2C397.448 164.08 396.088 163.52 394.355 163.52C392.382 163.52 390.848 164.12 389.755 165.32C388.662 166.52 388.115 168.227 388.115 170.44V171.24C388.115 173.4 388.662 175.093 389.755 176.32C390.848 177.547 392.382 178.16 394.355 178.16C395.875 178.16 397.088 177.867 397.995 177.28C398.928 176.667 399.528 175.84 399.795 174.8H403.435C403.115 176.72 402.155 178.267 400.555 179.44C398.955 180.613 396.888 181.2 394.355 181.2ZM427.274 181.2C424.074 181.2 421.54 180.427 419.674 178.88C417.807 177.307 416.727 175.067 416.434 172.16H420.234C420.5 174.187 421.194 175.667 422.314 176.6C423.434 177.533 425.087 178 427.274 178C429.087 178 430.514 177.587 431.554 176.76C432.594 175.933 433.114 174.787 433.114 173.32C433.114 172.44 432.954 171.72 432.634 171.16C432.34 170.6 431.834 170.16 431.114 169.84C430.42 169.493 429.447 169.2 428.194 168.96L424.954 168.36C423.167 168.04 421.687 167.547 420.514 166.88C419.34 166.187 418.46 165.32 417.874 164.28C417.314 163.213 417.034 161.973 417.034 160.56C417.034 158.107 417.86 156.2 419.514 154.84C421.167 153.48 423.46 152.8 426.394 152.8C429.3 152.8 431.634 153.533 433.394 155C435.154 156.44 436.154 158.48 436.394 161.12H432.594C432.354 159.387 431.727 158.107 430.714 157.28C429.7 156.427 428.26 156 426.394 156C424.634 156 423.274 156.373 422.314 157.12C421.354 157.84 420.874 158.88 420.874 160.24C420.874 161.12 421.06 161.867 421.434 162.48C421.807 163.067 422.367 163.56 423.114 163.96C423.887 164.333 424.9 164.64 426.154 164.88L429.394 165.44C431.234 165.787 432.7 166.28 433.794 166.92C434.914 167.56 435.727 168.4 436.234 169.44C436.74 170.453 436.994 171.72 436.994 173.24C436.994 174.893 436.594 176.32 435.794 177.52C435.02 178.693 433.9 179.6 432.434 180.24C430.994 180.88 429.274 181.2 427.274 181.2ZM450.293 181.2C448.319 181.2 446.573 180.773 445.053 179.92C443.533 179.067 442.346 177.853 441.493 176.28C440.666 174.707 440.253 172.907 440.253 170.88C440.253 168.827 440.666 167.013 441.493 165.44C442.346 163.867 443.533 162.653 445.053 161.8C446.573 160.92 448.319 160.48 450.293 160.48C452.266 160.48 454.013 160.92 455.533 161.8C457.053 162.653 458.239 163.867 459.093 165.44C459.946 167.013 460.373 168.827 460.373 170.88C460.373 172.907 459.946 174.707 459.093 176.28C458.239 177.853 457.053 179.067 455.533 179.92C454.013 180.773 452.266 181.2 450.293 181.2ZM450.293 178.16C451.546 178.16 452.639 177.867 453.573 177.28C454.533 176.693 455.266 175.853 455.773 174.76C456.306 173.667 456.573 172.373 456.573 170.88C456.573 169.387 456.319 168.08 455.813 166.96C455.306 165.84 454.573 164.987 453.613 164.4C452.679 163.813 451.573 163.52 450.293 163.52C449.013 163.52 447.906 163.813 446.973 164.4C446.039 164.987 445.319 165.84 444.813 166.96C444.306 168.08 444.053 169.387 444.053 170.88C444.053 172.373 444.306 173.667 444.813 174.76C445.319 175.853 446.039 176.693 446.973 177.28C447.906 177.867 449.013 178.16 450.293 178.16ZM472.661 181.2C469.808 181.2 467.648 180.467 466.181 179C464.741 177.533 464.021 175.36 464.021 172.48V160.68H467.741V172.96C467.741 174.64 468.168 175.933 469.021 176.84C469.901 177.72 471.115 178.16 472.661 178.16C474.288 178.16 475.515 177.72 476.341 176.84C477.195 175.96 477.621 174.667 477.621 172.96V160.68H481.341V172.48C481.341 175.36 480.608 177.533 479.141 179C477.675 180.467 475.515 181.2 472.661 181.2ZM486.218 160.68H489.778V164.04H489.938C490.631 162.867 491.538 161.987 492.658 161.4C493.778 160.787 495.058 160.48 496.498 160.48C498.818 160.48 500.591 161.253 501.818 162.8C503.071 164.32 503.698 166.547 503.698 169.48V181H499.978V169.48C499.978 167.48 499.578 166.013 498.778 165.08C497.978 164.12 496.738 163.64 495.058 163.64C493.351 163.64 492.071 164.133 491.218 165.12C490.365 166.08 489.938 167.533 489.938 169.48V181H486.218V160.68ZM516.361 181.2C514.574 181.2 513.001 180.787 511.641 179.96C510.281 179.107 509.228 177.893 508.481 176.32C507.761 174.747 507.401 172.933 507.401 170.88C507.401 168.8 507.761 166.973 508.481 165.4C509.228 163.827 510.281 162.613 511.641 161.76C513.001 160.907 514.574 160.48 516.361 160.48C517.774 160.48 519.094 160.813 520.321 161.48C521.548 162.147 522.508 163.067 523.201 164.24H523.361V152.2H527.081V181H523.521V177.48H523.361C522.694 178.627 521.721 179.533 520.441 180.2C519.188 180.867 517.828 181.2 516.361 181.2ZM517.361 178.16C518.614 178.16 519.708 177.867 520.641 177.28C521.574 176.693 522.281 175.853 522.761 174.76C523.268 173.667 523.521 172.373 523.521 170.88C523.521 169.387 523.268 168.08 522.761 166.96C522.254 165.84 521.534 164.987 520.601 164.4C519.668 163.813 518.588 163.52 517.361 163.52C516.108 163.52 515.014 163.813 514.081 164.4C513.174 164.987 512.468 165.84 511.961 166.96C511.454 168.08 511.201 169.387 511.201 170.88C511.201 172.373 511.441 173.667 511.921 174.76C512.428 175.853 513.148 176.693 514.081 177.28C515.014 177.867 516.108 178.16 517.361 178.16ZM539.631 181.2C537.098 181.2 535.124 180.64 533.711 179.52C532.298 178.373 531.511 176.733 531.351 174.6H534.951C535.111 175.88 535.564 176.827 536.311 177.44C537.084 178.027 538.191 178.32 539.631 178.32C540.804 178.32 541.738 178.067 542.431 177.56C543.151 177.027 543.511 176.307 543.511 175.4C543.511 174.84 543.391 174.387 543.151 174.04C542.938 173.693 542.591 173.413 542.111 173.2C541.631 172.96 540.951 172.76 540.071 172.6L537.671 172.16C535.644 171.76 534.164 171.107 533.231 170.2C532.298 169.267 531.831 167.973 531.831 166.32C531.831 164.56 532.484 163.147 533.791 162.08C535.124 161.013 536.898 160.48 539.111 160.48C541.378 160.48 543.164 161.013 544.471 162.08C545.778 163.12 546.511 164.613 546.671 166.56H543.071C542.911 165.467 542.511 164.667 541.871 164.16C541.231 163.627 540.311 163.36 539.111 163.36C537.964 163.36 537.071 163.613 536.431 164.12C535.818 164.6 535.511 165.267 535.511 166.12C535.511 166.92 535.738 167.533 536.191 167.96C536.671 168.387 537.524 168.72 538.751 168.96L541.351 169.44C542.844 169.707 544.004 170.08 544.831 170.56C545.658 171.013 546.244 171.613 546.591 172.36C546.964 173.107 547.151 174.053 547.151 175.2C547.151 177.147 546.498 178.64 545.191 179.68C543.884 180.693 542.031 181.2 539.631 181.2ZM561.262 153H578.982V156.28H565.102V181H561.262V153ZM564.102 165.56H578.182V168.88H564.102V165.56ZM583.054 160.68H586.614V164.6H586.774C587.307 163.373 588.214 162.387 589.494 161.64C590.801 160.867 592.427 160.48 594.374 160.48V164.12H593.174C591.147 164.12 589.574 164.68 588.454 165.8C587.334 166.893 586.774 168.613 586.774 170.96V181H583.054V160.68ZM606.699 181.2C604.725 181.2 602.979 180.773 601.459 179.92C599.939 179.067 598.752 177.853 597.899 176.28C597.072 174.707 596.659 172.907 596.659 170.88C596.659 168.827 597.072 167.013 597.899 165.44C598.752 163.867 599.939 162.653 601.459 161.8C602.979 160.92 604.725 160.48 606.699 160.48C608.672 160.48 610.419 160.92 611.939 161.8C613.459 162.653 614.645 163.867 615.499 165.44C616.352 167.013 616.779 168.827 616.779 170.88C616.779 172.907 616.352 174.707 615.499 176.28C614.645 177.853 613.459 179.067 611.939 179.92C610.419 180.773 608.672 181.2 606.699 181.2ZM606.699 178.16C607.952 178.16 609.045 177.867 609.979 177.28C610.939 176.693 611.672 175.853 612.179 174.76C612.712 173.667 612.979 172.373 612.979 170.88C612.979 169.387 612.725 168.08 612.219 166.96C611.712 165.84 610.979 164.987 610.019 164.4C609.085 163.813 607.979 163.52 606.699 163.52C605.419 163.52 604.312 163.813 603.379 164.4C602.445 164.987 601.725 165.84 601.219 166.96C600.712 168.08 600.459 169.387 600.459 170.88C600.459 172.373 600.712 173.667 601.219 174.76C601.725 175.853 602.445 176.693 603.379 177.28C604.312 177.867 605.419 178.16 606.699 178.16ZM620.827 160.68H624.388V164.04H624.548C625.214 162.893 626.081 162.013 627.148 161.4C628.241 160.787 629.481 160.48 630.868 160.48C632.308 160.48 633.534 160.787 634.548 161.4C635.561 162.013 636.334 162.933 636.868 164.16H637.028C637.801 162.987 638.801 162.08 640.028 161.44C641.281 160.8 642.654 160.48 644.148 160.48C646.414 160.48 648.148 161.253 649.348 162.8C650.548 164.32 651.148 166.547 651.148 169.48V181H647.428V169.48C647.428 167.507 647.041 166.04 646.268 165.08C645.494 164.12 644.294 163.64 642.668 163.64C641.068 163.64 639.868 164.133 639.068 165.12C638.268 166.08 637.868 167.533 637.868 169.48V181H634.108V169.48C634.108 167.507 633.721 166.04 632.948 165.08C632.201 164.12 631.028 163.64 629.428 163.64C627.801 163.64 626.574 164.133 625.748 165.12C624.948 166.08 624.548 167.533 624.548 169.48V181H620.827V160.68ZM673.711 153H678.351L688.591 181H684.671L676.071 156.36H675.911L667.311 181H663.431L673.711 153ZM668.951 171.08H682.431L683.551 174.36H667.871L668.951 171.08ZM691.648 160.68H695.208V164.6H695.368C695.901 163.373 696.808 162.387 698.088 161.64C699.394 160.867 701.021 160.48 702.968 160.48V164.12H701.768C699.741 164.12 698.168 164.68 697.048 165.8C695.928 166.893 695.368 168.613 695.368 170.96V181H691.648V160.68ZM715.293 181.2C713.319 181.2 711.573 180.773 710.053 179.92C708.533 179.067 707.346 177.853 706.493 176.28C705.666 174.707 705.253 172.907 705.253 170.88C705.253 168.827 705.666 167.013 706.493 165.44C707.346 163.867 708.533 162.653 710.053 161.8C711.573 160.92 713.319 160.48 715.293 160.48C717.266 160.48 719.013 160.92 720.533 161.8C722.053 162.653 723.239 163.867 724.093 165.44C724.946 167.013 725.373 168.827 725.373 170.88C725.373 172.907 724.946 174.707 724.093 176.28C723.239 177.853 722.053 179.067 720.533 179.92C719.013 180.773 717.266 181.2 715.293 181.2ZM715.293 178.16C716.546 178.16 717.639 177.867 718.573 177.28C719.533 176.693 720.266 175.853 720.773 174.76C721.306 173.667 721.573 172.373 721.573 170.88C721.573 169.387 721.319 168.08 720.813 166.96C720.306 165.84 719.573 164.987 718.613 164.4C717.679 163.813 716.573 163.52 715.293 163.52C714.013 163.52 712.906 163.813 711.973 164.4C711.039 164.987 710.319 165.84 709.813 166.96C709.306 168.08 709.053 169.387 709.053 170.88C709.053 172.373 709.306 173.667 709.813 174.76C710.319 175.853 711.039 176.693 711.973 177.28C712.906 177.867 714.013 178.16 715.293 178.16ZM737.661 181.2C734.808 181.2 732.648 180.467 731.181 179C729.741 177.533 729.021 175.36 729.021 172.48V160.68H732.741V172.96C732.741 174.64 733.168 175.933 734.021 176.84C734.901 177.72 736.115 178.16 737.661 178.16C739.288 178.16 740.515 177.72 741.341 176.84C742.195 175.96 742.621 174.667 742.621 172.96V160.68H746.341V172.48C746.341 175.36 745.608 177.533 744.141 179C742.675 180.467 740.515 181.2 737.661 181.2ZM751.218 160.68H754.778V164.04H754.938C755.631 162.867 756.538 161.987 757.658 161.4C758.778 160.787 760.058 160.48 761.498 160.48C763.818 160.48 765.591 161.253 766.818 162.8C768.071 164.32 768.698 166.547 768.698 169.48V181H764.978V169.48C764.978 167.48 764.578 166.013 763.778 165.08C762.978 164.12 761.738 163.64 760.058 163.64C758.351 163.64 757.071 164.133 756.218 165.12C755.365 166.08 754.938 167.533 754.938 169.48V181H751.218V160.68ZM781.361 181.2C779.574 181.2 778.001 180.787 776.641 179.96C775.281 179.107 774.228 177.893 773.481 176.32C772.761 174.747 772.401 172.933 772.401 170.88C772.401 168.8 772.761 166.973 773.481 165.4C774.228 163.827 775.281 162.613 776.641 161.76C778.001 160.907 779.574 160.48 781.361 160.48C782.774 160.48 784.094 160.813 785.321 161.48C786.548 162.147 787.508 163.067 788.201 164.24H788.361V152.2H792.081V181H788.521V177.48H788.361C787.694 178.627 786.721 179.533 785.441 180.2C784.188 180.867 782.828 181.2 781.361 181.2ZM782.361 178.16C783.614 178.16 784.708 177.867 785.641 177.28C786.574 176.693 787.281 175.853 787.761 174.76C788.268 173.667 788.521 172.373 788.521 170.88C788.521 169.387 788.268 168.08 787.761 166.96C787.254 165.84 786.534 164.987 785.601 164.4C784.668 163.813 783.588 163.52 782.361 163.52C781.108 163.52 780.014 163.813 779.081 164.4C778.174 164.987 777.468 165.84 776.961 166.96C776.454 168.08 776.201 169.387 776.201 170.88C776.201 172.373 776.441 173.667 776.921 174.76C777.428 175.853 778.148 176.693 779.081 177.28C780.014 177.867 781.108 178.16 782.361 178.16ZM813.818 154.76H817.658V181H813.818V154.76ZM804.818 153H826.658V156.28H804.818V153ZM830.554 152.2H834.274V163.92H834.434C835.127 162.8 836.007 161.947 837.074 161.36C838.167 160.773 839.421 160.48 840.834 160.48C843.154 160.48 844.927 161.253 846.154 162.8C847.407 164.32 848.034 166.547 848.034 169.48V181H844.314V169.48C844.314 167.48 843.914 166.013 843.114 165.08C842.314 164.12 841.074 163.64 839.394 163.64C837.687 163.64 836.407 164.133 835.554 165.12C834.701 166.08 834.274 167.533 834.274 169.48V181H830.554V152.2ZM861.777 181.2C859.75 181.2 857.977 180.787 856.457 179.96C854.937 179.107 853.764 177.907 852.937 176.36C852.137 174.787 851.737 172.96 851.737 170.88C851.737 168.773 852.137 166.933 852.937 165.36C853.764 163.787 854.937 162.587 856.457 161.76C857.977 160.907 859.75 160.48 861.777 160.48C864.63 160.48 866.87 161.4 868.497 163.24C870.124 165.08 870.937 167.613 870.937 170.84V172.08H853.977V169.36H867.857L867.337 169.96C867.337 167.907 866.844 166.32 865.857 165.2C864.87 164.08 863.51 163.52 861.777 163.52C859.804 163.52 858.27 164.12 857.177 165.32C856.084 166.52 855.537 168.227 855.537 170.44V171.24C855.537 173.4 856.084 175.093 857.177 176.32C858.27 177.547 859.804 178.16 861.777 178.16C863.297 178.16 864.51 177.867 865.417 177.28C866.35 176.667 866.95 175.84 867.217 174.8H870.857C870.537 176.72 869.577 178.267 867.977 179.44C866.377 180.613 864.31 181.2 861.777 181.2ZM882.416 153H886.456L892.136 177.24H892.296L898.456 153H903.336L909.456 177.24H909.616L915.296 153H919.336L912.016 181H907.096L900.976 157.32H900.816L894.656 181H889.736L882.416 153ZM930.644 181.2C928.671 181.2 926.924 180.773 925.404 179.92C923.884 179.067 922.697 177.853 921.844 176.28C921.017 174.707 920.604 172.907 920.604 170.88C920.604 168.827 921.017 167.013 921.844 165.44C922.697 163.867 923.884 162.653 925.404 161.8C926.924 160.92 928.671 160.48 930.644 160.48C932.617 160.48 934.364 160.92 935.884 161.8C937.404 162.653 938.591 163.867 939.444 165.44C940.297 167.013 940.724 168.827 940.724 170.88C940.724 172.907 940.297 174.707 939.444 176.28C938.591 177.853 937.404 179.067 935.884 179.92C934.364 180.773 932.617 181.2 930.644 181.2ZM930.644 178.16C931.897 178.16 932.991 177.867 933.924 177.28C934.884 176.693 935.617 175.853 936.124 174.76C936.657 173.667 936.924 172.373 936.924 170.88C936.924 169.387 936.671 168.08 936.164 166.96C935.657 165.84 934.924 164.987 933.964 164.4C933.031 163.813 931.924 163.52 930.644 163.52C929.364 163.52 928.257 163.813 927.324 164.4C926.391 164.987 925.671 165.84 925.164 166.96C924.657 168.08 924.404 169.387 924.404 170.88C924.404 172.373 924.657 173.667 925.164 174.76C925.671 175.853 926.391 176.693 927.324 177.28C928.257 177.867 929.364 178.16 930.644 178.16ZM944.773 160.68H948.333V164.6H948.493C949.026 163.373 949.933 162.387 951.213 161.64C952.519 160.867 954.146 160.48 956.093 160.48V164.12H954.893C952.866 164.12 951.293 164.68 950.173 165.8C949.053 166.893 948.493 168.613 948.493 170.96V181H944.773V160.68ZM965.688 181C963.848 181 962.435 180.507 961.448 179.52C960.461 178.533 959.968 177.12 959.968 175.28V152.2H963.688V175.52C963.688 176.347 963.901 176.973 964.328 177.4C964.755 177.827 965.368 178.04 966.168 178.04H968.088V181H965.688ZM978.939 181.2C977.152 181.2 975.579 180.787 974.219 179.96C972.859 179.107 971.806 177.893 971.059 176.32C970.339 174.747 969.979 172.933 969.979 170.88C969.979 168.8 970.339 166.973 971.059 165.4C971.806 163.827 972.859 162.613 974.219 161.76C975.579 160.907 977.152 160.48 978.939 160.48C980.352 160.48 981.672 160.813 982.899 161.48C984.126 162.147 985.086 163.067 985.779 164.24H985.939V152.2H989.659V181H986.099V177.48H985.939C985.272 178.627 984.299 179.533 983.019 180.2C981.766 180.867 980.406 181.2 978.939 181.2ZM979.939 178.16C981.192 178.16 982.286 177.867 983.219 177.28C984.152 176.693 984.859 175.853 985.339 174.76C985.846 173.667 986.099 172.373 986.099 170.88C986.099 169.387 985.846 168.08 985.339 166.96C984.832 165.84 984.112 164.987 983.179 164.4C982.246 163.813 981.166 163.52 979.939 163.52C978.686 163.52 977.592 163.813 976.659 164.4C975.752 164.987 975.046 165.84 974.539 166.96C974.032 168.08 973.779 169.387 973.779 170.88C973.779 172.373 974.019 173.667 974.499 174.76C975.006 175.853 975.726 176.693 976.659 177.28C977.592 177.867 978.686 178.16 979.939 178.16Z" fill="#C1D8F0"/>
</svg>
